<svg width="30" height="30" viewBox="0 0 30 30" fill="none" xmlns="http://www.w3.org/2000/svg">
<g clip-path="url(#clip0_1068_30)">
<path d="M15 30C23.2843 30 30 23.2843 30 15C30 6.71573 23.2843 0 15 0C6.71573 0 0 6.71573 0 15C0 23.2843 6.71573 30 15 30Z" fill="white"/>
<path d="M15 29.5C23.0081 29.5 29.5 23.0081 29.5 15C29.5 6.99187 23.0081 0.5 15 0.5C6.99187 0.5 0.5 6.99187 0.5 15C0.5 23.0081 6.99187 29.5 15 29.5Z" stroke="black" stroke-opacity="0.08"/>
<path d="M18.8797 8H21.1928L16.1395 13.7827L22.0843 21.6517H17.4296L13.7838 16.8792L9.61227 21.6517H7.29787L12.7028 15.4664L7 8H11.7729L15.0683 12.3622L18.8797 8ZM18.0679 20.2655H19.3496L11.0764 9.31336H9.70107L18.0679 20.2655Z" fill="black"/>
</g>
<defs>
<clipPath id="clip0_1068_30">
<rect width="30" height="30" fill="white"/>
</clipPath>
</defs>
</svg>
